<svg xmlns="http://www.w3.org/2000/svg" viewBox="0 0 337.5 83.14"><defs><style>.cls-1{fill:#6495ed;}</style></defs><g id="Layer_2" data-name="Layer 2"><g id="Layer_1-2" data-name="Layer 1"><path class="cls-1" d="M0,44V33.88Q0,17.91,8.38,9t23.2-9Q46.4,0,55.35,9q6.32,6.31,6.32,18.94H46.74q0-13.66-14.59-13.66A15.12,15.12,0,0,0,24.69,16a12.47,12.47,0,0,0-4.48,3.79,17.46,17.46,0,0,0-2.3,6.43A50.11,50.11,0,0,0,17,33.3c-.08,1.92-.12,4.48-.12,7.7v6.54c.08,1.07.19,2.87.35,5.4a23.64,23.64,0,0,0,.91,5.28c.46,1.07,1.08,2.45,1.84,4.14a8,8,0,0,0,3.1,3.55,19.45,19.45,0,0,0,10.68,3q10,0,14.13-8.5V54.89H38V41.57H61.55V66.26A25.2,25.2,0,0,1,50.3,78.89a35.54,35.54,0,0,1-17.46,4.25q-17.34,0-25.15-9.65T0,44ZM128.58,82.45H104.24q-13.78,0-20-5.28T78.17,59.71V.69h16v59q0,4.83,2.18,6.66t7.93,1.84h24.34Zm74.74,0H186.67l-4.6-14.12H154.63l-4.48,14.12H133.5L159.68,7.58a13.08,13.08,0,0,1,3.79-5.4A9.14,9.14,0,0,1,168.75.69a8,8,0,0,1,4.94,1.38c1.3.92,2.45,2.75,3.44,5.51ZM178.4,54.89l-9.65-32.38-10.1,32.38Zm91.26,3.45q0,11.59-8.5,18.25t-21.71,6.55a39.34,39.34,0,0,1-20.21-5.74A23.34,23.34,0,0,1,211.32,69a25.08,25.08,0,0,1-3.1-12.52l14.47-.69A10.91,10.91,0,0,0,228,65.46a21,21,0,0,0,11.71,3.44Q254,68.9,254,58.8q0-8.28-9.76-9.77L231,47.66q-10-1.5-15.85-7.12t-5.86-16.2a21.63,21.63,0,0,1,8.39-17.45Q226,0,238.77,0t20.67,6.55a20.56,20.56,0,0,1,7.8,16.65L253,23.89q-2-10-13.43-10-7,0-11,3T224.64,24a8,8,0,0,0,2.87,6.43,14.21,14.21,0,0,0,7.12,2.87l13.09,1.38Q269.65,37.67,269.66,58.34Zm67.84,0q0,11.59-8.5,18.25t-21.7,6.55a39.31,39.31,0,0,1-20.21-5.74A23.17,23.17,0,0,1,279.17,69a25.08,25.08,0,0,1-3.1-12.52l14.47-.69a10.91,10.91,0,0,0,5.28,9.65,21,21,0,0,0,11.71,3.44q14.36,0,14.35-10.1,0-8.28-9.76-9.77L298.8,47.66q-10-1.5-15.84-7.12t-5.86-16.2a21.62,21.62,0,0,1,8.38-17.45Q293.87,0,306.61,0t20.67,6.55a20.54,20.54,0,0,1,7.81,16.65l-14.24.69q-2-10-13.43-10-7,0-11,3T292.49,24a8,8,0,0,0,2.87,6.43,14.17,14.17,0,0,0,7.12,2.87l13.09,1.38Q337.5,37.67,337.5,58.34Z"/></g></g></svg>