<svg width="1353" height="334" viewBox="0 0 1353 334" fill="none" xmlns="http://www.w3.org/2000/svg">
<path d="M0.592344 176.9V136.42C0.592344 93.7933 11.7857 60.52 34.1723 36.6C56.559 12.68 87.5323 0.719975 127.092 0.719975C166.652 0.719975 198.392 12.68 222.312 36.6C239.179 53.4666 247.612 78.7667 247.612 112.5H187.812C187.812 76.0067 168.339 57.76 129.392 57.76C117.739 57.76 107.772 60.06 99.4923 64.66C91.519 68.9533 85.539 74.0133 81.5523 79.84C77.5657 85.6667 74.499 94.2533 72.3523 105.6C70.2057 116.947 68.979 126.453 68.6723 134.12C68.3657 141.787 68.2123 152.06 68.2123 164.94C68.2123 177.82 68.2123 186.56 68.2123 191.16C68.519 195.453 68.979 202.66 69.5923 212.78C70.5123 222.593 71.739 229.647 73.2723 233.94C75.1123 238.233 77.5657 243.753 80.6324 250.5C84.0057 257.247 88.1457 262 93.0523 264.76C105.626 272.733 119.886 276.72 135.832 276.72C162.512 276.72 181.372 265.373 192.412 242.68V220.6H152.852V167.24H247.152V266.14C237.646 288.527 222.619 305.393 202.072 316.74C181.526 328.087 158.219 333.76 132.152 333.76C85.8457 333.76 52.2657 320.88 31.4123 295.12C10.8657 269.053 0.592344 229.647 0.592344 176.9ZM515.663 331H418.143C381.343 331 354.663 323.947 338.103 309.84C321.85 295.427 313.723 272.12 313.723 239.92V3.47999H377.663V239.92C377.663 252.8 380.576 261.693 386.403 266.6C392.23 271.507 402.81 273.96 418.143 273.96H515.663V331ZM815.033 331H748.333L729.933 274.42H619.993L602.053 331H535.353L640.233 31.08C644.833 20.6533 649.893 13.4466 655.413 9.45997C661.24 5.47332 668.293 3.47999 676.573 3.47999C684.853 3.47999 691.446 5.31999 696.353 8.99998C701.566 12.68 706.166 20.04 710.153 31.08L815.033 331ZM715.213 220.6L676.573 90.88L636.093 220.6H715.213ZM1080.77 234.4C1080.77 265.373 1069.43 289.753 1046.73 307.54C1024.04 325.02 995.06 333.76 959.793 333.76C931.886 333.76 904.9 326.093 878.833 310.76C865.953 302.787 855.373 291.593 847.093 277.18C838.813 262.46 834.673 245.747 834.673 227.04L892.633 224.28C892.633 240.84 899.686 253.72 913.793 262.92C927.9 272.12 943.54 276.72 960.713 276.72C999.046 276.72 1018.21 263.227 1018.21 236.24C1018.21 214.16 1005.18 201.127 979.113 197.14L925.753 191.62C899.073 187.633 877.913 178.127 862.273 163.1C846.633 148.073 838.813 126.453 838.813 98.24C838.813 70.0266 850.006 46.72 872.393 28.32C894.78 9.91998 922.993 0.719975 957.033 0.719975C991.38 0.719975 1018.98 9.45998 1039.83 26.94C1060.69 44.1133 1071.11 66.3467 1071.11 93.64L1014.07 96.4C1008.86 69.72 990.92 56.38 960.253 56.38C941.546 56.38 926.826 60.3667 916.093 68.34C905.666 76.3133 900.453 85.82 900.453 96.86C900.453 107.593 904.286 116.18 911.953 122.62C919.62 128.753 929.126 132.587 940.473 134.12L992.913 139.64C1051.49 147.613 1080.77 179.2 1080.77 234.4ZM1352.55 234.4C1352.55 265.373 1341.2 289.753 1318.51 307.54C1295.82 325.02 1266.84 333.76 1231.57 333.76C1203.66 333.76 1176.68 326.093 1150.61 310.76C1137.73 302.787 1127.15 291.593 1118.87 277.18C1110.59 262.46 1106.45 245.747 1106.45 227.04L1164.41 224.28C1164.41 240.84 1171.46 253.72 1185.57 262.92C1199.68 272.12 1215.32 276.72 1232.49 276.72C1270.82 276.72 1289.99 263.227 1289.99 236.24C1289.99 214.16 1276.96 201.127 1250.89 197.14L1197.53 191.62C1170.85 187.633 1149.69 178.127 1134.05 163.1C1118.41 148.073 1110.59 126.453 1110.59 98.24C1110.59 70.0266 1121.78 46.72 1144.17 28.32C1166.56 9.91998 1194.77 0.719975 1228.81 0.719975C1263.16 0.719975 1290.76 9.45998 1311.61 26.94C1332.46 44.1133 1342.89 66.3467 1342.89 93.64L1285.85 96.4C1280.64 69.72 1262.7 56.38 1232.03 56.38C1213.32 56.38 1198.6 60.3667 1187.87 68.34C1177.44 76.3133 1172.23 85.82 1172.23 96.86C1172.23 107.593 1176.06 116.18 1183.73 122.62C1191.4 128.753 1200.9 132.587 1212.25 134.12L1264.69 139.64C1323.26 147.613 1352.55 179.2 1352.55 234.4Z" fill="#6495ED"/>
</svg>
